# xmcd
#
# Track frame offsets: 
#        187
#        52772
#        98115
#        125032
#        156125
#        210715
#        249675
#        289220
#        319812
#
# Disc length: 4651 seconds
#
# Revision: 0
# Processed by: cddbd v1.5.2PL0 Copyright (c) Steve Scherf et al.
# Submitted via: ExactAudioCopy v1.0b1
#
DISCID=81122909
DTITLE=Kurt Masur - Beethoven Symphonien No.4 and 7, CD3
DYEAR=1990
DGENRE=Classical
TTITLE0=Symphony No. 4 in B flat Major op. 60 - 1. Adagio, Allegro viv
TTITLE0=ace
TTITLE1=Symphony No. 4 in B flat Major op. 60 - 2. Adagio
TTITLE2=Symphony No. 4 in B flat Major op. 60 - 3. Allegro vivace
TTITLE3=Symphony No. 4 in B flat Major op. 60 - 4. Allegro ma non trop
TTITLE3=po
TTITLE4=Symphony No. 7 in A major, Op. 92 - 1. Pocco sostenuto
TTITLE5=Symphony No. 7 in A major, Op. 92 - 2. Allegretto
TTITLE6=Symphony No. 7 in A major, Op. 92 - 3. Presto Assai meno prest
TTITLE6=o
TTITLE7=Symphony No. 7 in A major, Op. 92 - 4. Allegro con brio
TTITLE8=Overture in C major Op 115
EXTD=
EXTT0=
EXTT1=
EXTT2=
EXTT3=
EXTT4=
EXTT5=
EXTT6=
EXTT7=
EXTT8=
PLAYORDER=
